{
	"asset":{
		"generator":"Khronos glTF Blender I/O v5.0.21",
		"version":"2.0"
	},
	"scene":0,
	"scenes":[
		{
			"name":"Scene",
			"nodes":[
				0,
				1
			]
		}
	],
	"nodes":[
		{
			"mesh":0,
			"name":"Icosphere"
		},
		{
			"name":"Empty",
			"translation":[
				0,
				0.46204614639282227,
				0
			]
		}
	],
	"meshes":[
		{
			"name":"Icosphere",
			"primitives":[
				{
					"attributes":{
						"POSITION":0,
						"NORMAL":1,
						"TEXCOORD_0":2
					},
					"indices":3
				}
			]
		}
	],
	"accessors":[
		{
			"bufferView":0,
			"componentType":5126,
			"count":1708,
			"max":[
				1.0060646533966064,
				1.3000432252883911,
				1.0083523988723755
			],
			"min":[
				-1.010962724685669,
				-1.3000432252883911,
				-1.0083523988723755
			],
			"type":"VEC3"
		},
		{
			"bufferView":1,
			"componentType":5126,
			"count":1708,
			"type":"VEC3"
		},
		{
			"bufferView":2,
			"componentType":5126,
			"count":1708,
			"type":"VEC2"
		},
		{
			"bufferView":3,
			"componentType":5123,
			"count":5760,
			"type":"SCALAR"
		}
	],
	"bufferViews":[
		{
			"buffer":0,
			"byteLength":20496,
			"byteOffset":0,
			"target":34962
		},
		{
			"buffer":0,
			"byteLength":20496,
			"byteOffset":20496,
			"target":34962
		},
		{
			"buffer":0,
			"byteLength":13664,
			"byteOffset":40992,
			"target":34962
		},
		{
			"buffer":0,
			"byteLength":11520,
			"byteOffset":54656,
			"target":34963
		}
	],
	"buffers":[
		{
			"byteLength":66176,
			"uri":"egg.bin"
		}
	]
}
