{
	"asset":{
		"generator":"Khronos glTF Blender I/O v5.0.21",
		"version":"2.0"
	},
	"scene":0,
	"scenes":[
		{
			"name":"Scene",
			"nodes":[
				0,
				1
			]
		}
	],
	"nodes":[
		{
			"mesh":0,
			"name":"Book"
		},
		{
			"mesh":1,
			"name":"Pages"
		}
	],
	"materials":[
		{
			"doubleSided":true,
			"name":"Book",
			"pbrMetallicRoughness":{
				"baseColorFactor":[
					0.800000011920929,
					0.800000011920929,
					0.800000011920929,
					1
				],
				"metallicFactor":0,
				"roughnessFactor":0.5
			}
		},
		{
			"doubleSided":true,
			"name":"Pages",
			"pbrMetallicRoughness":{
				"baseColorFactor":[
					0.800000011920929,
					0.800000011920929,
					0.800000011920929,
					1
				],
				"metallicFactor":0,
				"roughnessFactor":0.5
			}
		}
	],
	"meshes":[
		{
			"name":"Plane",
			"primitives":[
				{
					"attributes":{
						"POSITION":0,
						"NORMAL":1,
						"TEXCOORD_0":2
					},
					"indices":3,
					"material":0
				}
			]
		},
		{
			"name":"Plane.001",
			"primitives":[
				{
					"attributes":{
						"POSITION":4,
						"NORMAL":5,
						"TEXCOORD_0":6
					},
					"indices":7,
					"material":1
				}
			]
		}
	],
	"accessors":[
		{
			"bufferView":0,
			"componentType":5126,
			"count":115,
			"max":[
				0.12887953221797943,
				0.012879857793450356,
				0.13090822100639343
			],
			"min":[
				-0.12811815738677979,
				-0.005758627317845821,
				-0.13090822100639343
			],
			"type":"VEC3"
		},
		{
			"bufferView":1,
			"componentType":5126,
			"count":115,
			"type":"VEC3"
		},
		{
			"bufferView":2,
			"componentType":5126,
			"count":115,
			"type":"VEC2"
		},
		{
			"bufferView":3,
			"componentType":5123,
			"count":636,
			"type":"SCALAR"
		},
		{
			"bufferView":4,
			"componentType":5126,
			"count":105,
			"max":[
				0.125,
				0.01356662716716528,
				0.125
			],
			"min":[
				-0.125,
				0.0006867691990919411,
				-0.125
			],
			"type":"VEC3"
		},
		{
			"bufferView":5,
			"componentType":5126,
			"count":105,
			"type":"VEC3"
		},
		{
			"bufferView":6,
			"componentType":5126,
			"count":105,
			"type":"VEC2"
		},
		{
			"bufferView":7,
			"componentType":5123,
			"count":456,
			"type":"SCALAR"
		}
	],
	"bufferViews":[
		{
			"buffer":0,
			"byteLength":1380,
			"byteOffset":0,
			"target":34962
		},
		{
			"buffer":0,
			"byteLength":1380,
			"byteOffset":1380,
			"target":34962
		},
		{
			"buffer":0,
			"byteLength":920,
			"byteOffset":2760,
			"target":34962
		},
		{
			"buffer":0,
			"byteLength":1272,
			"byteOffset":3680,
			"target":34963
		},
		{
			"buffer":0,
			"byteLength":1260,
			"byteOffset":4952,
			"target":34962
		},
		{
			"buffer":0,
			"byteLength":1260,
			"byteOffset":6212,
			"target":34962
		},
		{
			"buffer":0,
			"byteLength":840,
			"byteOffset":7472,
			"target":34962
		},
		{
			"buffer":0,
			"byteLength":912,
			"byteOffset":8312,
			"target":34963
		}
	],
	"buffers":[
		{
			"byteLength":9224,
			"uri":"guidebook.bin"
		}
	]
}
