{
	"asset":{
		"generator":"Khronos glTF Blender I/O v5.0.21",
		"version":"2.0"
	},
	"scene":0,
	"scenes":[
		{
			"name":"Scene",
			"nodes":[
				0,
				1,
				2,
				3,
				4,
				5,
				6,
				7,
				8,
				9,
				10,
				11,
				12,
				13,
				14,
				15,
				16,
				17,
				18,
				19
			]
		}
	],
	"nodes":[
		{
			"mesh":0,
			"name":"Short2",
			"translation":[
				0.5,
				0.8952545523643494,
				0
			]
		},
		{
			"mesh":1,
			"name":"Medium1",
			"translation":[
				2.5,
				0.8952545523643494,
				0
			]
		},
		{
			"mesh":2,
			"name":"Medium2",
			"translation":[
				3,
				0.8952545523643494,
				0
			]
		},
		{
			"mesh":3,
			"name":"Short1",
			"translation":[
				0,
				0.8952545523643494,
				0
			]
		},
		{
			"mesh":4,
			"name":"Long1",
			"translation":[
				4,
				0.8952545523643494,
				0
			]
		},
		{
			"mesh":5,
			"name":"Long2",
			"translation":[
				4.5,
				0.8952545523643494,
				0
			]
		},
		{
			"mesh":6,
			"name":"Short3",
			"translation":[
				1,
				0.8952545523643494,
				0
			]
		},
		{
			"mesh":7,
			"name":"Medium3",
			"translation":[
				3.5,
				0.8952545523643494,
				0
			]
		},
		{
			"mesh":8,
			"name":"Short4",
			"translation":[
				1.5,
				0.8952545523643494,
				0
			]
		},
		{
			"mesh":9,
			"name":"Short5",
			"translation":[
				2,
				0.8952545523643494,
				0
			]
		},
		{
			"mesh":10,
			"name":"Long3",
			"translation":[
				5,
				0.8952550292015076,
				0
			]
		},
		{
			"mesh":11,
			"name":"Hilt",
			"translation":[
				0,
				0.8952545523643494,
				0
			]
		},
		{
			"mesh":12,
			"name":"Hilt.001",
			"translation":[
				0.5,
				0.8952545523643494,
				0
			]
		},
		{
			"mesh":13,
			"name":"Hilt.002",
			"translation":[
				1,
				0.8952545523643494,
				0
			]
		},
		{
			"mesh":14,
			"name":"Hilt.003",
			"translation":[
				1.5,
				0.8952545523643494,
				0
			]
		},
		{
			"mesh":15,
			"name":"Hilt.004",
			"translation":[
				2,
				0.8952545523643494,
				0
			]
		},
		{
			"mesh":16,
			"name":"Hilt.005",
			"translation":[
				2.5,
				0.8952545523643494,
				0
			]
		},
		{
			"mesh":17,
			"name":"Hilt.006",
			"translation":[
				3,
				0.8952545523643494,
				0
			]
		},
		{
			"mesh":18,
			"name":"Hilt.007",
			"translation":[
				3.5,
				0.8952545523643494,
				0
			]
		},
		{
			"mesh":19,
			"name":"Hilt.008",
			"translation":[
				4,
				0.8952545523643494,
				0
			]
		}
	],
	"materials":[
		{
			"doubleSided":true,
			"name":"BladeMetal",
			"pbrMetallicRoughness":{
				"baseColorFactor":[
					0.800000011920929,
					0.800000011920929,
					0.800000011920929,
					1
				],
				"metallicFactor":0.8999999761581421,
				"roughnessFactor":0.25
			}
		},
		{
			"doubleSided":true,
			"name":"Other",
			"pbrMetallicRoughness":{
				"baseColorFactor":[
					0.09689152985811234,
					0.09689152985811234,
					0.09689152985811234,
					1
				],
				"metallicFactor":0,
				"roughnessFactor":0.5
			}
		},
		{
			"doubleSided":true,
			"name":"Hilt",
			"pbrMetallicRoughness":{
				"baseColorFactor":[
					0.04826526716351509,
					0.032469771802425385,
					0.0291421078145504,
					1
				],
				"metallicFactor":0,
				"roughnessFactor":0.5
			}
		}
	],
	"meshes":[
		{
			"name":"Mesh",
			"primitives":[
				{
					"attributes":{
						"POSITION":0,
						"NORMAL":1,
						"TEXCOORD_0":2,
						"TANGENT":3
					},
					"indices":4,
					"material":0
				}
			]
		},
		{
			"name":"Mesh",
			"primitives":[
				{
					"attributes":{
						"POSITION":5,
						"NORMAL":6,
						"TEXCOORD_0":7,
						"TANGENT":8
					},
					"indices":9,
					"material":0
				}
			]
		},
		{
			"name":"Mesh",
			"primitives":[
				{
					"attributes":{
						"POSITION":10,
						"NORMAL":11,
						"TEXCOORD_0":12,
						"TANGENT":13
					},
					"indices":14,
					"material":0
				}
			]
		},
		{
			"name":"Cube.001",
			"primitives":[
				{
					"attributes":{
						"POSITION":15,
						"NORMAL":16,
						"TEXCOORD_0":17,
						"TANGENT":18
					},
					"indices":19,
					"material":0
				}
			]
		},
		{
			"name":"Mesh",
			"primitives":[
				{
					"attributes":{
						"POSITION":20,
						"NORMAL":21,
						"TEXCOORD_0":22,
						"TANGENT":23
					},
					"indices":24,
					"material":0
				}
			]
		},
		{
			"name":"Mesh",
			"primitives":[
				{
					"attributes":{
						"POSITION":25,
						"NORMAL":26,
						"TEXCOORD_0":27,
						"TANGENT":28
					},
					"indices":29,
					"material":0
				}
			]
		},
		{
			"name":"Mesh",
			"primitives":[
				{
					"attributes":{
						"POSITION":30,
						"NORMAL":31,
						"TEXCOORD_0":32,
						"TANGENT":33
					},
					"indices":34,
					"material":0
				},
				{
					"attributes":{
						"POSITION":35,
						"NORMAL":36,
						"TEXCOORD_0":37,
						"TANGENT":38
					},
					"indices":39,
					"material":1
				}
			]
		},
		{
			"name":"Mesh",
			"primitives":[
				{
					"attributes":{
						"POSITION":40,
						"NORMAL":41,
						"TEXCOORD_0":42,
						"TANGENT":43
					},
					"indices":44,
					"material":0
				},
				{
					"attributes":{
						"POSITION":45,
						"NORMAL":46,
						"TEXCOORD_0":47,
						"TANGENT":48
					},
					"indices":49,
					"material":1
				}
			]
		},
		{
			"name":"Cube.011",
			"primitives":[
				{
					"attributes":{
						"POSITION":50,
						"NORMAL":51,
						"TEXCOORD_0":52,
						"TANGENT":53
					},
					"indices":54,
					"material":0
				}
			]
		},
		{
			"name":"Cube.012",
			"primitives":[
				{
					"attributes":{
						"POSITION":55,
						"NORMAL":56,
						"TEXCOORD_0":57,
						"TANGENT":58
					},
					"indices":59,
					"material":0
				}
			]
		},
		{
			"name":"Mesh",
			"primitives":[
				{
					"attributes":{
						"POSITION":60,
						"NORMAL":61,
						"TEXCOORD_0":62,
						"TANGENT":63
					},
					"indices":64,
					"material":0
				},
				{
					"attributes":{
						"POSITION":65,
						"NORMAL":66,
						"TEXCOORD_0":67,
						"TANGENT":68
					},
					"indices":69,
					"material":1
				}
			]
		},
		{
			"name":"Cube",
			"primitives":[
				{
					"attributes":{
						"POSITION":70,
						"NORMAL":71,
						"TEXCOORD_0":72,
						"TANGENT":73
					},
					"indices":74,
					"material":2
				}
			]
		},
		{
			"name":"Mesh",
			"primitives":[
				{
					"attributes":{
						"POSITION":75,
						"NORMAL":76,
						"TEXCOORD_0":77,
						"TANGENT":78
					},
					"indices":79,
					"material":2
				}
			]
		},
		{
			"name":"Mesh",
			"primitives":[
				{
					"attributes":{
						"POSITION":80,
						"NORMAL":81,
						"TEXCOORD_0":82,
						"TANGENT":83
					},
					"indices":84,
					"material":2
				}
			]
		},
		{
			"name":"Mesh",
			"primitives":[
				{
					"attributes":{
						"POSITION":85,
						"NORMAL":86,
						"TEXCOORD_0":87,
						"TANGENT":88
					},
					"indices":89,
					"material":2
				}
			]
		},
		{
			"name":"Mesh",
			"primitives":[
				{
					"attributes":{
						"POSITION":90,
						"NORMAL":91,
						"TEXCOORD_0":92,
						"TANGENT":93
					},
					"indices":94,
					"material":2
				}
			]
		},
		{
			"name":"Mesh",
			"primitives":[
				{
					"attributes":{
						"POSITION":95,
						"NORMAL":96,
						"TEXCOORD_0":97,
						"TANGENT":98
					},
					"indices":99,
					"material":2
				}
			]
		},
		{
			"name":"Mesh",
			"primitives":[
				{
					"attributes":{
						"POSITION":100,
						"NORMAL":101,
						"TEXCOORD_0":102,
						"TANGENT":103
					},
					"indices":104,
					"material":2
				}
			]
		},
		{
			"name":"Mesh",
			"primitives":[
				{
					"attributes":{
						"POSITION":105,
						"NORMAL":106,
						"TEXCOORD_0":107,
						"TANGENT":108
					},
					"indices":109,
					"material":2
				}
			]
		},
		{
			"name":"Mesh",
			"primitives":[
				{
					"attributes":{
						"POSITION":110,
						"NORMAL":111,
						"TEXCOORD_0":112,
						"TANGENT":113
					},
					"indices":114,
					"material":2
				}
			]
		}
	],
	"accessors":[
		{
			"bufferView":0,
			"componentType":5126,
			"count":437,
			"max":[
				0.07487812638282776,
				1.0080814361572266,
				0.006170056760311127
			],
			"min":[
				-0.12964461743831635,
				0.1464691162109375,
				-0.006170056760311127
			],
			"type":"VEC3"
		},
		{
			"bufferView":1,
			"componentType":5126,
			"count":437,
			"type":"VEC3"
		},
		{
			"bufferView":2,
			"componentType":5126,
			"count":437,
			"type":"VEC2"
		},
		{
			"bufferView":3,
			"componentType":5126,
			"count":437,
			"type":"VEC4"
		},
		{
			"bufferView":4,
			"componentType":5123,
			"count":1338,
			"type":"SCALAR"
		},
		{
			"bufferView":5,
			"componentType":5126,
			"count":569,
			"max":[
				0.08190607279539108,
				1.5025279521942139,
				0.006170056760311127
			],
			"min":[
				-0.11897653341293335,
				0.1464691162109375,
				-0.006170057691633701
			],
			"type":"VEC3"
		},
		{
			"bufferView":6,
			"componentType":5126,
			"count":569,
			"type":"VEC3"
		},
		{
			"bufferView":7,
			"componentType":5126,
			"count":569,
			"type":"VEC2"
		},
		{
			"bufferView":8,
			"componentType":5126,
			"count":569,
			"type":"VEC4"
		},
		{
			"bufferView":9,
			"componentType":5123,
			"count":1362,
			"type":"SCALAR"
		},
		{
			"bufferView":10,
			"componentType":5126,
			"count":497,
			"max":[
				0.09242378175258636,
				1.5025279521942139,
				0.006170056760311127
			],
			"min":[
				-0.11350804567337036,
				0.1464691311120987,
				-0.006170057691633701
			],
			"type":"VEC3"
		},
		{
			"bufferView":11,
			"componentType":5126,
			"count":497,
			"type":"VEC3"
		},
		{
			"bufferView":12,
			"componentType":5126,
			"count":497,
			"type":"VEC2"
		},
		{
			"bufferView":13,
			"componentType":5126,
			"count":497,
			"type":"VEC4"
		},
		{
			"bufferView":14,
			"componentType":5123,
			"count":1362,
			"type":"SCALAR"
		},
		{
			"bufferView":15,
			"componentType":5126,
			"count":74,
			"max":[
				0.07953431457281113,
				1.069807767868042,
				0.005655885208398104
			],
			"min":[
				-0.07953431457281113,
				0.1464691311120987,
				-0.005655885208398104
			],
			"type":"VEC3"
		},
		{
			"bufferView":16,
			"componentType":5126,
			"count":74,
			"type":"VEC3"
		},
		{
			"bufferView":17,
			"componentType":5126,
			"count":74,
			"type":"VEC2"
		},
		{
			"bufferView":18,
			"componentType":5126,
			"count":74,
			"type":"VEC4"
		},
		{
			"bufferView":19,
			"componentType":5123,
			"count":216,
			"type":"SCALAR"
		},
		{
			"bufferView":20,
			"componentType":5126,
			"count":1618,
			"max":[
				0.2255116105079651,
				2.0255954265594482,
				0.006170057691633701
			],
			"min":[
				-0.15386168658733368,
				0.1464691162109375,
				-0.006170057691633701
			],
			"type":"VEC3"
		},
		{
			"bufferView":21,
			"componentType":5126,
			"count":1618,
			"type":"VEC3"
		},
		{
			"bufferView":22,
			"componentType":5126,
			"count":1618,
			"type":"VEC2"
		},
		{
			"bufferView":23,
			"componentType":5126,
			"count":1618,
			"type":"VEC4"
		},
		{
			"bufferView":24,
			"componentType":5123,
			"count":5256,
			"type":"SCALAR"
		},
		{
			"bufferView":25,
			"componentType":5126,
			"count":1578,
			"max":[
				0.2177150994539261,
				1.5522780418395996,
				0.011571543291211128
			],
			"min":[
				-0.23156218230724335,
				0.1464691162109375,
				-0.011573142372071743
			],
			"type":"VEC3"
		},
		{
			"bufferView":26,
			"componentType":5126,
			"count":1578,
			"type":"VEC3"
		},
		{
			"bufferView":27,
			"componentType":5126,
			"count":1578,
			"type":"VEC2"
		},
		{
			"bufferView":28,
			"componentType":5126,
			"count":1578,
			"type":"VEC4"
		},
		{
			"bufferView":29,
			"componentType":5123,
			"count":5448,
			"type":"SCALAR"
		},
		{
			"bufferView":30,
			"componentType":5126,
			"count":272,
			"max":[
				0.08738423138856888,
				0.9941882491111755,
				0.01253719162195921
			],
			"min":[
				-0.11617182195186615,
				0.23459289968013763,
				-0.012538138777017593
			],
			"type":"VEC3"
		},
		{
			"bufferView":31,
			"componentType":5126,
			"count":272,
			"type":"VEC3"
		},
		{
			"bufferView":32,
			"componentType":5126,
			"count":272,
			"type":"VEC2"
		},
		{
			"bufferView":33,
			"componentType":5126,
			"count":272,
			"type":"VEC4"
		},
		{
			"bufferView":34,
			"componentType":5123,
			"count":612,
			"type":"SCALAR"
		},
		{
			"bufferView":35,
			"componentType":5126,
			"count":758,
			"max":[
				0.18816149234771729,
				0.9751942753791809,
				0.01253719162195921
			],
			"min":[
				-0.05302288010716438,
				0.14646916091442108,
				-0.012538138777017593
			],
			"type":"VEC3"
		},
		{
			"bufferView":36,
			"componentType":5126,
			"count":758,
			"type":"VEC3"
		},
		{
			"bufferView":37,
			"componentType":5126,
			"count":758,
			"type":"VEC2"
		},
		{
			"bufferView":38,
			"componentType":5126,
			"count":758,
			"type":"VEC4"
		},
		{
			"bufferView":39,
			"componentType":5123,
			"count":2280,
			"type":"SCALAR"
		},
		{
			"bufferView":40,
			"componentType":5126,
			"count":272,
			"max":[
				0.08863148838281631,
				1.3310059309005737,
				0.014033559709787369
			],
			"min":[
				-0.18236462771892548,
				0.23459289968013763,
				-0.014036066830158234
			],
			"type":"VEC3"
		},
		{
			"bufferView":41,
			"componentType":5126,
			"count":272,
			"type":"VEC3"
		},
		{
			"bufferView":42,
			"componentType":5126,
			"count":272,
			"type":"VEC2"
		},
		{
			"bufferView":43,
			"componentType":5126,
			"count":272,
			"type":"VEC4"
		},
		{
			"bufferView":44,
			"componentType":5123,
			"count":612,
			"type":"SCALAR"
		},
		{
			"bufferView":45,
			"componentType":5126,
			"count":758,
			"max":[
				0.2000969499349594,
				1.3161734342575073,
				0.014033559709787369
			],
			"min":[
				-0.05302288010716438,
				0.14646916091442108,
				-0.014036066830158234
			],
			"type":"VEC3"
		},
		{
			"bufferView":46,
			"componentType":5126,
			"count":758,
			"type":"VEC3"
		},
		{
			"bufferView":47,
			"componentType":5126,
			"count":758,
			"type":"VEC2"
		},
		{
			"bufferView":48,
			"componentType":5126,
			"count":758,
			"type":"VEC4"
		},
		{
			"bufferView":49,
			"componentType":5123,
			"count":2280,
			"type":"SCALAR"
		},
		{
			"bufferView":50,
			"componentType":5126,
			"count":120,
			"max":[
				0.05396071821451187,
				0.9657981991767883,
				0.006722161080688238
			],
			"min":[
				-0.052194930613040924,
				0.1464691162109375,
				-0.006752240005880594
			],
			"type":"VEC3"
		},
		{
			"bufferView":51,
			"componentType":5126,
			"count":120,
			"type":"VEC3"
		},
		{
			"bufferView":52,
			"componentType":5126,
			"count":120,
			"type":"VEC2"
		},
		{
			"bufferView":53,
			"componentType":5126,
			"count":120,
			"type":"VEC4"
		},
		{
			"bufferView":54,
			"componentType":5123,
			"count":312,
			"type":"SCALAR"
		},
		{
			"bufferView":55,
			"componentType":5126,
			"count":104,
			"max":[
				0.05396071821451187,
				0.9657981991767883,
				0.006722161080688238
			],
			"min":[
				-0.052194930613040924,
				0.1464691162109375,
				-0.006752240005880594
			],
			"type":"VEC3"
		},
		{
			"bufferView":56,
			"componentType":5126,
			"count":104,
			"type":"VEC3"
		},
		{
			"bufferView":57,
			"componentType":5126,
			"count":104,
			"type":"VEC2"
		},
		{
			"bufferView":58,
			"componentType":5126,
			"count":104,
			"type":"VEC4"
		},
		{
			"bufferView":59,
			"componentType":5123,
			"count":276,
			"type":"SCALAR"
		},
		{
			"bufferView":60,
			"componentType":5126,
			"count":821,
			"max":[
				0.17357078194618225,
				2.2178025245666504,
				0.16850438714027405
			],
			"min":[
				-0.1714123636484146,
				0.1464691311120987,
				-0.1681312918663025
			],
			"type":"VEC3"
		},
		{
			"bufferView":61,
			"componentType":5126,
			"count":821,
			"type":"VEC3"
		},
		{
			"bufferView":62,
			"componentType":5126,
			"count":821,
			"type":"VEC2"
		},
		{
			"bufferView":63,
			"componentType":5126,
			"count":821,
			"type":"VEC4"
		},
		{
			"bufferView":64,
			"componentType":5123,
			"count":1860,
			"type":"SCALAR"
		},
		{
			"bufferView":65,
			"componentType":5126,
			"count":2589,
			"max":[
				0.15224583446979523,
				2.182570219039917,
				0.0930347666144371
			],
			"min":[
				-0.11568538844585419,
				0.40801239013671875,
				-0.09281858801841736
			],
			"type":"VEC3"
		},
		{
			"bufferView":66,
			"componentType":5126,
			"count":2589,
			"type":"VEC3"
		},
		{
			"bufferView":67,
			"componentType":5126,
			"count":2589,
			"type":"VEC2"
		},
		{
			"bufferView":68,
			"componentType":5126,
			"count":2589,
			"type":"VEC4"
		},
		{
			"bufferView":69,
			"componentType":5123,
			"count":7356,
			"type":"SCALAR"
		},
		{
			"bufferView":70,
			"componentType":5126,
			"count":256,
			"max":[
				0.14646905660629272,
				0.1464691162109375,
				0.01912984624505043
			],
			"min":[
				-0.14646905660629272,
				-0.16335439682006836,
				-0.01912984624505043
			],
			"type":"VEC3"
		},
		{
			"bufferView":71,
			"componentType":5126,
			"count":256,
			"type":"VEC3"
		},
		{
			"bufferView":72,
			"componentType":5126,
			"count":256,
			"type":"VEC2"
		},
		{
			"bufferView":73,
			"componentType":5126,
			"count":256,
			"type":"VEC4"
		},
		{
			"bufferView":74,
			"componentType":5123,
			"count":372,
			"type":"SCALAR"
		},
		{
			"bufferView":75,
			"componentType":5126,
			"count":348,
			"max":[
				0.14646907150745392,
				0.1464691311120987,
				0.025352589786052704
			],
			"min":[
				-0.14646907150745392,
				-0.15262624621391296,
				-0.025352589786052704
			],
			"type":"VEC3"
		},
		{
			"bufferView":76,
			"componentType":5126,
			"count":348,
			"type":"VEC3"
		},
		{
			"bufferView":77,
			"componentType":5126,
			"count":348,
			"type":"VEC2"
		},
		{
			"bufferView":78,
			"componentType":5126,
			"count":348,
			"type":"VEC4"
		},
		{
			"bufferView":79,
			"componentType":5123,
			"count":1104,
			"type":"SCALAR"
		},
		{
			"bufferView":80,
			"componentType":5126,
			"count":590,
			"max":[
				0.11934266239404678,
				0.1464691311120987,
				0.025352589786052704
			],
			"min":[
				-0.11934266984462738,
				-0.15262624621391296,
				-0.025352589786052704
			],
			"type":"VEC3"
		},
		{
			"bufferView":81,
			"componentType":5126,
			"count":590,
			"type":"VEC3"
		},
		{
			"bufferView":82,
			"componentType":5126,
			"count":590,
			"type":"VEC2"
		},
		{
			"bufferView":83,
			"componentType":5126,
			"count":590,
			"type":"VEC4"
		},
		{
			"bufferView":84,
			"componentType":5123,
			"count":1584,
			"type":"SCALAR"
		},
		{
			"bufferView":85,
			"componentType":5126,
			"count":306,
			"max":[
				0.11934266239404678,
				0.1464691311120987,
				0.024742061272263527
			],
			"min":[
				-0.11934266984462738,
				-0.236526757478714,
				-0.024742061272263527
			],
			"type":"VEC3"
		},
		{
			"bufferView":86,
			"componentType":5126,
			"count":306,
			"type":"VEC3"
		},
		{
			"bufferView":87,
			"componentType":5126,
			"count":306,
			"type":"VEC2"
		},
		{
			"bufferView":88,
			"componentType":5126,
			"count":306,
			"type":"VEC4"
		},
		{
			"bufferView":89,
			"componentType":5123,
			"count":912,
			"type":"SCALAR"
		},
		{
			"bufferView":90,
			"componentType":5126,
			"count":364,
			"max":[
				0.11934266239404678,
				0.1464691311120987,
				0.024742061272263527
			],
			"min":[
				-0.11934266984462738,
				-0.236526757478714,
				-0.024742061272263527
			],
			"type":"VEC3"
		},
		{
			"bufferView":91,
			"componentType":5126,
			"count":364,
			"type":"VEC3"
		},
		{
			"bufferView":92,
			"componentType":5126,
			"count":364,
			"type":"VEC2"
		},
		{
			"bufferView":93,
			"componentType":5126,
			"count":364,
			"type":"VEC4"
		},
		{
			"bufferView":94,
			"componentType":5123,
			"count":1104,
			"type":"SCALAR"
		},
		{
			"bufferView":95,
			"componentType":5126,
			"count":355,
			"max":[
				0.12167289853096008,
				0.1464691311120987,
				0.02577388472855091
			],
			"min":[
				-0.12167290598154068,
				-0.4055157005786896,
				-0.02577388845384121
			],
			"type":"VEC3"
		},
		{
			"bufferView":96,
			"componentType":5126,
			"count":355,
			"type":"VEC3"
		},
		{
			"bufferView":97,
			"componentType":5126,
			"count":355,
			"type":"VEC2"
		},
		{
			"bufferView":98,
			"componentType":5126,
			"count":355,
			"type":"VEC4"
		},
		{
			"bufferView":99,
			"componentType":5123,
			"count":1104,
			"type":"SCALAR"
		},
		{
			"bufferView":100,
			"componentType":5126,
			"count":350,
			"max":[
				0.11934266239404678,
				0.1464691311120987,
				0.02265244908630848
			],
			"min":[
				-0.11934266984462738,
				-0.4055157005786896,
				-0.02265244908630848
			],
			"type":"VEC3"
		},
		{
			"bufferView":101,
			"componentType":5126,
			"count":350,
			"type":"VEC3"
		},
		{
			"bufferView":102,
			"componentType":5126,
			"count":350,
			"type":"VEC2"
		},
		{
			"bufferView":103,
			"componentType":5126,
			"count":350,
			"type":"VEC4"
		},
		{
			"bufferView":104,
			"componentType":5123,
			"count":1104,
			"type":"SCALAR"
		},
		{
			"bufferView":105,
			"componentType":5126,
			"count":425,
			"max":[
				0.08798009157180786,
				0.1464691311120987,
				0.03498212993144989
			],
			"min":[
				-0.08798009902238846,
				-0.4055157005786896,
				-0.03498212248086929
			],
			"type":"VEC3"
		},
		{
			"bufferView":106,
			"componentType":5126,
			"count":425,
			"type":"VEC3"
		},
		{
			"bufferView":107,
			"componentType":5126,
			"count":425,
			"type":"VEC2"
		},
		{
			"bufferView":108,
			"componentType":5126,
			"count":425,
			"type":"VEC4"
		},
		{
			"bufferView":109,
			"componentType":5123,
			"count":1296,
			"type":"SCALAR"
		},
		{
			"bufferView":110,
			"componentType":5126,
			"count":383,
			"max":[
				0.1381489485502243,
				0.1464691311120987,
				0.03261997550725937
			],
			"min":[
				-0.13114656507968903,
				-0.6100448966026306,
				-0.03443637862801552
			],
			"type":"VEC3"
		},
		{
			"bufferView":111,
			"componentType":5126,
			"count":383,
			"type":"VEC3"
		},
		{
			"bufferView":112,
			"componentType":5126,
			"count":383,
			"type":"VEC2"
		},
		{
			"bufferView":113,
			"componentType":5126,
			"count":383,
			"type":"VEC4"
		},
		{
			"bufferView":114,
			"componentType":5123,
			"count":1200,
			"type":"SCALAR"
		}
	],
	"bufferViews":[
		{
			"buffer":0,
			"byteLength":5244,
			"byteOffset":0,
			"target":34962
		},
		{
			"buffer":0,
			"byteLength":5244,
			"byteOffset":5244,
			"target":34962
		},
		{
			"buffer":0,
			"byteLength":3496,
			"byteOffset":10488,
			"target":34962
		},
		{
			"buffer":0,
			"byteLength":6992,
			"byteOffset":13984,
			"target":34962
		},
		{
			"buffer":0,
			"byteLength":2676,
			"byteOffset":20976,
			"target":34963
		},
		{
			"buffer":0,
			"byteLength":6828,
			"byteOffset":23652,
			"target":34962
		},
		{
			"buffer":0,
			"byteLength":6828,
			"byteOffset":30480,
			"target":34962
		},
		{
			"buffer":0,
			"byteLength":4552,
			"byteOffset":37308,
			"target":34962
		},
		{
			"buffer":0,
			"byteLength":9104,
			"byteOffset":41860,
			"target":34962
		},
		{
			"buffer":0,
			"byteLength":2724,
			"byteOffset":50964,
			"target":34963
		},
		{
			"buffer":0,
			"byteLength":5964,
			"byteOffset":53688,
			"target":34962
		},
		{
			"buffer":0,
			"byteLength":5964,
			"byteOffset":59652,
			"target":34962
		},
		{
			"buffer":0,
			"byteLength":3976,
			"byteOffset":65616,
			"target":34962
		},
		{
			"buffer":0,
			"byteLength":7952,
			"byteOffset":69592,
			"target":34962
		},
		{
			"buffer":0,
			"byteLength":2724,
			"byteOffset":77544,
			"target":34963
		},
		{
			"buffer":0,
			"byteLength":888,
			"byteOffset":80268,
			"target":34962
		},
		{
			"buffer":0,
			"byteLength":888,
			"byteOffset":81156,
			"target":34962
		},
		{
			"buffer":0,
			"byteLength":592,
			"byteOffset":82044,
			"target":34962
		},
		{
			"buffer":0,
			"byteLength":1184,
			"byteOffset":82636,
			"target":34962
		},
		{
			"buffer":0,
			"byteLength":432,
			"byteOffset":83820,
			"target":34963
		},
		{
			"buffer":0,
			"byteLength":19416,
			"byteOffset":84252,
			"target":34962
		},
		{
			"buffer":0,
			"byteLength":19416,
			"byteOffset":103668,
			"target":34962
		},
		{
			"buffer":0,
			"byteLength":12944,
			"byteOffset":123084,
			"target":34962
		},
		{
			"buffer":0,
			"byteLength":25888,
			"byteOffset":136028,
			"target":34962
		},
		{
			"buffer":0,
			"byteLength":10512,
			"byteOffset":161916,
			"target":34963
		},
		{
			"buffer":0,
			"byteLength":18936,
			"byteOffset":172428,
			"target":34962
		},
		{
			"buffer":0,
			"byteLength":18936,
			"byteOffset":191364,
			"target":34962
		},
		{
			"buffer":0,
			"byteLength":12624,
			"byteOffset":210300,
			"target":34962
		},
		{
			"buffer":0,
			"byteLength":25248,
			"byteOffset":222924,
			"target":34962
		},
		{
			"buffer":0,
			"byteLength":10896,
			"byteOffset":248172,
			"target":34963
		},
		{
			"buffer":0,
			"byteLength":3264,
			"byteOffset":259068,
			"target":34962
		},
		{
			"buffer":0,
			"byteLength":3264,
			"byteOffset":262332,
			"target":34962
		},
		{
			"buffer":0,
			"byteLength":2176,
			"byteOffset":265596,
			"target":34962
		},
		{
			"buffer":0,
			"byteLength":4352,
			"byteOffset":267772,
			"target":34962
		},
		{
			"buffer":0,
			"byteLength":1224,
			"byteOffset":272124,
			"target":34963
		},
		{
			"buffer":0,
			"byteLength":9096,
			"byteOffset":273348,
			"target":34962
		},
		{
			"buffer":0,
			"byteLength":9096,
			"byteOffset":282444,
			"target":34962
		},
		{
			"buffer":0,
			"byteLength":6064,
			"byteOffset":291540,
			"target":34962
		},
		{
			"buffer":0,
			"byteLength":12128,
			"byteOffset":297604,
			"target":34962
		},
		{
			"buffer":0,
			"byteLength":4560,
			"byteOffset":309732,
			"target":34963
		},
		{
			"buffer":0,
			"byteLength":3264,
			"byteOffset":314292,
			"target":34962
		},
		{
			"buffer":0,
			"byteLength":3264,
			"byteOffset":317556,
			"target":34962
		},
		{
			"buffer":0,
			"byteLength":2176,
			"byteOffset":320820,
			"target":34962
		},
		{
			"buffer":0,
			"byteLength":4352,
			"byteOffset":322996,
			"target":34962
		},
		{
			"buffer":0,
			"byteLength":1224,
			"byteOffset":327348,
			"target":34963
		},
		{
			"buffer":0,
			"byteLength":9096,
			"byteOffset":328572,
			"target":34962
		},
		{
			"buffer":0,
			"byteLength":9096,
			"byteOffset":337668,
			"target":34962
		},
		{
			"buffer":0,
			"byteLength":6064,
			"byteOffset":346764,
			"target":34962
		},
		{
			"buffer":0,
			"byteLength":12128,
			"byteOffset":352828,
			"target":34962
		},
		{
			"buffer":0,
			"byteLength":4560,
			"byteOffset":364956,
			"target":34963
		},
		{
			"buffer":0,
			"byteLength":1440,
			"byteOffset":369516,
			"target":34962
		},
		{
			"buffer":0,
			"byteLength":1440,
			"byteOffset":370956,
			"target":34962
		},
		{
			"buffer":0,
			"byteLength":960,
			"byteOffset":372396,
			"target":34962
		},
		{
			"buffer":0,
			"byteLength":1920,
			"byteOffset":373356,
			"target":34962
		},
		{
			"buffer":0,
			"byteLength":624,
			"byteOffset":375276,
			"target":34963
		},
		{
			"buffer":0,
			"byteLength":1248,
			"byteOffset":375900,
			"target":34962
		},
		{
			"buffer":0,
			"byteLength":1248,
			"byteOffset":377148,
			"target":34962
		},
		{
			"buffer":0,
			"byteLength":832,
			"byteOffset":378396,
			"target":34962
		},
		{
			"buffer":0,
			"byteLength":1664,
			"byteOffset":379228,
			"target":34962
		},
		{
			"buffer":0,
			"byteLength":552,
			"byteOffset":380892,
			"target":34963
		},
		{
			"buffer":0,
			"byteLength":9852,
			"byteOffset":381444,
			"target":34962
		},
		{
			"buffer":0,
			"byteLength":9852,
			"byteOffset":391296,
			"target":34962
		},
		{
			"buffer":0,
			"byteLength":6568,
			"byteOffset":401148,
			"target":34962
		},
		{
			"buffer":0,
			"byteLength":13136,
			"byteOffset":407716,
			"target":34962
		},
		{
			"buffer":0,
			"byteLength":3720,
			"byteOffset":420852,
			"target":34963
		},
		{
			"buffer":0,
			"byteLength":31068,
			"byteOffset":424572,
			"target":34962
		},
		{
			"buffer":0,
			"byteLength":31068,
			"byteOffset":455640,
			"target":34962
		},
		{
			"buffer":0,
			"byteLength":20712,
			"byteOffset":486708,
			"target":34962
		},
		{
			"buffer":0,
			"byteLength":41424,
			"byteOffset":507420,
			"target":34962
		},
		{
			"buffer":0,
			"byteLength":14712,
			"byteOffset":548844,
			"target":34963
		},
		{
			"buffer":0,
			"byteLength":3072,
			"byteOffset":563556,
			"target":34962
		},
		{
			"buffer":0,
			"byteLength":3072,
			"byteOffset":566628,
			"target":34962
		},
		{
			"buffer":0,
			"byteLength":2048,
			"byteOffset":569700,
			"target":34962
		},
		{
			"buffer":0,
			"byteLength":4096,
			"byteOffset":571748,
			"target":34962
		},
		{
			"buffer":0,
			"byteLength":744,
			"byteOffset":575844,
			"target":34963
		},
		{
			"buffer":0,
			"byteLength":4176,
			"byteOffset":576588,
			"target":34962
		},
		{
			"buffer":0,
			"byteLength":4176,
			"byteOffset":580764,
			"target":34962
		},
		{
			"buffer":0,
			"byteLength":2784,
			"byteOffset":584940,
			"target":34962
		},
		{
			"buffer":0,
			"byteLength":5568,
			"byteOffset":587724,
			"target":34962
		},
		{
			"buffer":0,
			"byteLength":2208,
			"byteOffset":593292,
			"target":34963
		},
		{
			"buffer":0,
			"byteLength":7080,
			"byteOffset":595500,
			"target":34962
		},
		{
			"buffer":0,
			"byteLength":7080,
			"byteOffset":602580,
			"target":34962
		},
		{
			"buffer":0,
			"byteLength":4720,
			"byteOffset":609660,
			"target":34962
		},
		{
			"buffer":0,
			"byteLength":9440,
			"byteOffset":614380,
			"target":34962
		},
		{
			"buffer":0,
			"byteLength":3168,
			"byteOffset":623820,
			"target":34963
		},
		{
			"buffer":0,
			"byteLength":3672,
			"byteOffset":626988,
			"target":34962
		},
		{
			"buffer":0,
			"byteLength":3672,
			"byteOffset":630660,
			"target":34962
		},
		{
			"buffer":0,
			"byteLength":2448,
			"byteOffset":634332,
			"target":34962
		},
		{
			"buffer":0,
			"byteLength":4896,
			"byteOffset":636780,
			"target":34962
		},
		{
			"buffer":0,
			"byteLength":1824,
			"byteOffset":641676,
			"target":34963
		},
		{
			"buffer":0,
			"byteLength":4368,
			"byteOffset":643500,
			"target":34962
		},
		{
			"buffer":0,
			"byteLength":4368,
			"byteOffset":647868,
			"target":34962
		},
		{
			"buffer":0,
			"byteLength":2912,
			"byteOffset":652236,
			"target":34962
		},
		{
			"buffer":0,
			"byteLength":5824,
			"byteOffset":655148,
			"target":34962
		},
		{
			"buffer":0,
			"byteLength":2208,
			"byteOffset":660972,
			"target":34963
		},
		{
			"buffer":0,
			"byteLength":4260,
			"byteOffset":663180,
			"target":34962
		},
		{
			"buffer":0,
			"byteLength":4260,
			"byteOffset":667440,
			"target":34962
		},
		{
			"buffer":0,
			"byteLength":2840,
			"byteOffset":671700,
			"target":34962
		},
		{
			"buffer":0,
			"byteLength":5680,
			"byteOffset":674540,
			"target":34962
		},
		{
			"buffer":0,
			"byteLength":2208,
			"byteOffset":680220,
			"target":34963
		},
		{
			"buffer":0,
			"byteLength":4200,
			"byteOffset":682428,
			"target":34962
		},
		{
			"buffer":0,
			"byteLength":4200,
			"byteOffset":686628,
			"target":34962
		},
		{
			"buffer":0,
			"byteLength":2800,
			"byteOffset":690828,
			"target":34962
		},
		{
			"buffer":0,
			"byteLength":5600,
			"byteOffset":693628,
			"target":34962
		},
		{
			"buffer":0,
			"byteLength":2208,
			"byteOffset":699228,
			"target":34963
		},
		{
			"buffer":0,
			"byteLength":5100,
			"byteOffset":701436,
			"target":34962
		},
		{
			"buffer":0,
			"byteLength":5100,
			"byteOffset":706536,
			"target":34962
		},
		{
			"buffer":0,
			"byteLength":3400,
			"byteOffset":711636,
			"target":34962
		},
		{
			"buffer":0,
			"byteLength":6800,
			"byteOffset":715036,
			"target":34962
		},
		{
			"buffer":0,
			"byteLength":2592,
			"byteOffset":721836,
			"target":34963
		},
		{
			"buffer":0,
			"byteLength":4596,
			"byteOffset":724428,
			"target":34962
		},
		{
			"buffer":0,
			"byteLength":4596,
			"byteOffset":729024,
			"target":34962
		},
		{
			"buffer":0,
			"byteLength":3064,
			"byteOffset":733620,
			"target":34962
		},
		{
			"buffer":0,
			"byteLength":6128,
			"byteOffset":736684,
			"target":34962
		},
		{
			"buffer":0,
			"byteLength":2400,
			"byteOffset":742812,
			"target":34963
		}
	],
	"buffers":[
		{
			"byteLength":745212,
			"uri":"naous_swords.bin"
		}
	]
}
